<?xml version="1.0" encoding="utf-8"?>
<svg version="1.0" xmlns="http://www.w3.org/2000/svg" width="514pt" height="514pt" viewBox="0 0 514 514" style="" preserveAspectRatio="xMidYMid meet">
<g fill="#FFB541FF" stroke="#FFB541FF">
<path d="M 72.931 5.028 C 56.735 8.482 45.595 13.616 33.858 23.035 C 18.834 35.093 9.791 50.324 5.306 71.124 C 3.603 79.024 3.500 89.653 3.500 258.000 L 3.500 436.500 5.788 445.500 C 13.545 476.011 36.641 499.318 67.000 507.273 L 75.500 509.500 257.000 509.500 C 462.715 509.500 443.251 510.305 462.500 500.996 C 480.160 492.454 492.358 480.255 500.992 462.500 C 510.212 443.541 509.500 460.827 509.500 256.000 L 509.500 75.500 507.260 67.000 C 500.918 42.935 484.483 22.751 462.895 12.520 C 458.712 10.538 449.937 7.588 443.395 5.966 L 431.500 3.016 256.500 3.108 C 90.998 3.195 81.035 3.299 72.931 5.028 M 448.011 66.550 C 451.845 70.384 452.813 75.485 450.593 80.162 C 447.142 87.435 453.153 87.000 356.096 87.000 L 269.000 87.000 269.000 107.863 L 269.000 128.726 276.599 129.951 C 294.697 132.871 314.762 140.894 329.701 151.185 C 345.800 162.275 362.519 181.677 371.477 199.667 C 381.109 219.009 384.328 233.243 384.328 256.500 C 384.328 275.094 383.197 282.451 377.870 298.500 C 363.420 342.038 322.273 376.529 276.750 383.261 L 269.000 384.407 269.000 412.302 C 269.000 435.700 268.744 440.737 267.414 443.540 C 263.117 452.596 250.414 452.619 246.038 443.579 C 244.139 439.655 244.000 437.496 244.000 411.888 L 244.000 384.407 236.250 383.261 C 209.992 379.378 185.897 367.052 166.467 347.564 C 146.976 328.014 134.387 304.405 129.906 279.000 C 128.057 268.515 128.292 246.588 130.376 235.000 C 137.770 193.903 162.043 161.031 198.617 142.586 C 209.387 137.154 223.052 132.578 235.069 130.380 L 244.000 128.746 244.000 107.938 L 244.000 87.130 164.750 87.116 C 121.163 87.108 81.803 87.078 77.285 87.050 C 69.571 87.003 68.856 86.812 65.566 83.924 C 59.205 78.339 59.992 69.419 67.237 64.992 C 70.470 63.017 72.224 63.001 257.731 63.249 L 444.962 63.500 448.011 66.550 "/></g>
<g fill="#FFB541FF" stroke="#FFB541FF">
<path d="M 269.000 256.905 L 269.000 358.810 273.250 358.269 C 286.386 356.597 305.722 348.480 317.828 339.554 C 331.499 329.476 344.636 313.114 350.926 298.333 C 362.993 269.976 362.040 236.835 348.377 209.729 C 337.726 188.599 316.518 169.359 294.533 160.880 C 286.623 157.830 275.587 155.051 271.250 155.017 L 269.000 155.000 269.000 256.905 "/></g>
<g fill="#FFB541FF" stroke="#FFB541FF">
<path d="M 229.500 157.390 C 193.334 167.521 166.892 194.214 156.755 230.825 C 154.965 237.290 154.621 241.337 154.574 256.500 C 154.525 272.323 154.798 275.528 156.837 283.000 C 159.527 292.864 165.174 305.402 170.658 313.690 C 175.716 321.335 186.896 333.068 195.000 339.236 C 206.647 348.102 226.220 356.367 240.250 358.346 L 244.000 358.874 244.000 256.937 L 244.000 155.000 240.750 155.074 C 238.963 155.115 233.900 156.157 229.500 157.390 "/></g>
<g fill="#E7B65515" stroke="#E7B65515">
<path d="M 268.461 155.250 C 268.199 155.938 268.103 201.275 268.247 256.000 L 268.510 355.500 268.755 255.320 L 269.000 155.139 271.250 154.706 L 273.500 154.272 271.219 154.136 C 269.964 154.061 268.723 154.563 268.461 155.250 "/></g>
<g fill="#E7B65515" stroke="#E7B65515">
<path d="M 268.469 108.249 L 268.500 129.500 270.750 129.429 C 272.314 129.379 272.397 129.303 271.020 129.179 C 269.125 129.008 269.027 128.092 268.739 107.999 L 268.439 86.999 268.469 108.249 "/></g>
<g fill="#E7B65515" stroke="#E7B65515">
<path d="M 244.239 108.000 C 244.036 125.807 243.772 129.025 242.500 129.167 C 241.675 129.258 241.788 129.371 242.750 129.417 C 244.365 129.494 244.499 127.857 244.489 108.250 L 244.478 87.000 244.239 108.000 "/></g>
<g fill="#E7B65515" stroke="#E7B65515">
<path d="M 346.500 347.457 L 341.500 352.554 346.500 347.457 L 351.500 342.361 346.500 347.457 "/></g>
<g fill="#E7B65515" stroke="#E7B65515">
<path d="M 167.000 348.000 L 172.000 353.000 167.000 348.000 L 162.000 343.000 167.000 348.000 "/></g>
<g fill="#E7B65515" stroke="#E7B65515">
<path d="M 183.500 183.449 L 179.500 187.559 183.500 183.449 L 187.500 179.338 183.500 183.449 "/></g>
<g fill="#E7B65515" stroke="#E7B65515">
<path d="M 485.500 485.435 L 482.500 488.564 485.500 485.435 L 488.500 482.305 485.500 485.435 "/></g>
<g fill="#FFAA3D15" stroke="#FFAA3D15">
<path d="M 485.500 27.500 L 489.000 31.000 485.500 27.500 L 482.000 24.000 485.500 27.500 "/></g>
<g fill="#FFB441B1" stroke="#FFB441B1">
<path d="M 183.500 329.500 L 187.000 333.000 183.500 329.500 L 180.000 326.000 183.500 329.500 "/></g>
</svg>
